<svg width="50" height="50" viewBox="0 0 50 50" fill="current" xmlns="http://www.w3.org/2000/svg">
<path fill-rule="evenodd" clip-rule="evenodd" d="M10 7.5C7.23858 7.5 5 9.73857 5 12.5V37.5C5 40.2614 7.23858 42.5 10 42.5H40C42.7614 42.5 45 40.2614 45 37.5V12.5C45 9.73857 42.7614 7.5 40 7.5H10ZM17.5 12.5H32.5V22.5H17.5V12.5ZM37.5 32.5V37.5H40V32.5H37.5ZM32.5 27.5H17.5V37.5H32.5V27.5ZM37.5 27.5H40V22.5H37.5V27.5ZM40 17.5V12.5H37.5V17.5H40ZM12.5 12.5V17.5H10V12.5H12.5ZM12.5 22.5H10V27.5H12.5V22.5ZM10 32.5H12.5V37.5H10V32.5Z" fill="current"/>
</svg>
