<svg width="50" height="50" viewBox="0 0 50 50" fill="current" xmlns="http://www.w3.org/2000/svg">
<path d="M43.3958 16.6874L29.75 5.77071C27.0833 3.64571 22.9167 3.62488 20.2708 5.74988L6.625 16.6874C4.66667 18.2499 3.47917 21.3749 3.89584 23.8332L6.52084 39.5415C7.125 43.0624 10.3958 45.8332 13.9583 45.8332H36.0417C39.5625 45.8332 42.8958 42.9999 43.5 39.5207L46.125 23.8124C46.5 21.3749 45.3125 18.2499 43.3958 16.6874ZM26.5625 37.4999C26.5625 38.354 25.8542 39.0624 25 39.0624C24.1458 39.0624 23.4375 38.354 23.4375 37.4999V31.2499C23.4375 30.3957 24.1458 29.6874 25 29.6874C25.8542 29.6874 26.5625 30.3957 26.5625 31.2499V37.4999Z" fill="current"/>
</svg>
