<svg width="50" height="50" viewBox="0 0 50 50" fill="current" xmlns="http://www.w3.org/2000/svg">
<path fill-rule="evenodd" clip-rule="evenodd" d="M20 10C14.4772 10 10 14.4772 10 20C10 25.5228 14.4772 30 20 30C25.5228 30 30 25.5228 30 20C30 14.4772 25.5228 10 20 10ZM5 20C5 11.7157 11.7157 5 20 5C28.2843 5 35 11.7157 35 20C35 23.2396 33.973 26.2393 32.2269 28.6913L44.2678 40.7322C45.2441 41.7085 45.2441 43.2915 44.2678 44.2678C43.2915 45.2441 41.7085 45.2441 40.7322 44.2678L28.6913 32.2269C26.2393 33.973 23.2396 35 20 35C11.7157 35 5 28.2843 5 20Z" fill="current"/>
</svg>
