<svg width="50" height="50" viewBox="0 0 50 50" fill="current" xmlns="http://www.w3.org/2000/svg">
<path d="M25 47.9163C24.4474 47.9163 23.9175 47.6968 23.5268 47.3061C23.1361 46.9154 22.9166 46.3855 22.9166 45.833V39.583H14.5833C13.4782 39.583 12.4184 39.144 11.637 38.3626C10.8556 37.5812 10.4166 36.5214 10.4166 35.4163V14.583C10.4166 13.4779 10.8556 12.4181 11.637 11.6367C12.4184 10.8553 13.4782 10.4163 14.5833 10.4163H43.75C44.855 10.4163 45.9149 10.8553 46.6963 11.6367C47.4777 12.4181 47.9166 13.4779 47.9166 14.583V35.4163C47.9166 36.5214 47.4777 37.5812 46.6963 38.3626C45.9149 39.144 44.855 39.583 43.75 39.583H35.2083L27.5 47.3122C27.0833 47.6872 26.5833 47.9163 26.0416 47.9163H25ZM6.24998 31.2497H2.08331V6.24967C2.08331 5.14461 2.5223 4.0848 3.3037 3.3034C4.0851 2.52199 5.14491 2.08301 6.24998 2.08301H39.5833V6.24967H6.24998V31.2497Z" fill="current"/>
</svg>
