<svg width="50" height="50" viewBox="0 0 50 50" fill="current" xmlns="http://www.w3.org/2000/svg">
<path d="M5 15C5 12.2386 7.23858 10 10 10H25C27.7614 10 30 12.2386 30 15V35C30 37.7614 27.7614 40 25 40H10C7.23858 40 5 37.7614 5 35V15Z" fill="current"/>
<path d="M36.382 17.7639C35.535 18.1874 35 19.0531 35 20V30C35 30.9469 35.535 31.8126 36.382 32.2361L41.382 34.7361C42.1569 35.1236 43.0773 35.0821 43.8143 34.6266C44.5514 34.1711 45 33.3664 45 32.5V17.5C45 16.6336 44.5514 15.8289 43.8143 15.3734C43.0773 14.9179 42.1569 14.8764 41.382 15.2639L36.382 17.7639Z" fill="current"/>
</svg>
